<mxfile host="app.diagrams.net" agent="Mozilla/5.0 (Macintosh; Intel Mac OS X 10_15_7) AppleWebKit/537.36 (KHTML, like Gecko) Chrome/126.0.0.0 Safari/537.36" version="24.7.7">
  <diagram id="C5RBs43oDa-KdzZeNtuy" name="Page-1">
    <mxGraphModel dx="1234" dy="1146" grid="1" gridSize="10" guides="1" tooltips="1" connect="1" arrows="1" fold="1" page="1" pageScale="1" pageWidth="827" pageHeight="1169" math="0" shadow="0">
      <root>
        <mxCell id="WIyWlLk6GJQsqaUBKTNV-0" />
        <mxCell id="WIyWlLk6GJQsqaUBKTNV-1" parent="WIyWlLk6GJQsqaUBKTNV-0" />
        <mxCell id="f5HPm9VqEAg4-mi-M7pS-6" style="edgeStyle=orthogonalEdgeStyle;rounded=0;orthogonalLoop=1;jettySize=auto;html=1;exitX=0.5;exitY=1;exitDx=0;exitDy=0;entryX=0.5;entryY=0;entryDx=0;entryDy=0;" edge="1" parent="WIyWlLk6GJQsqaUBKTNV-1">
          <mxGeometry relative="1" as="geometry">
            <mxPoint x="140" y="230" as="sourcePoint" />
            <mxPoint x="140" y="270" as="targetPoint" />
          </mxGeometry>
        </mxCell>
        <mxCell id="f5HPm9VqEAg4-mi-M7pS-2" value="&lt;h1 style=&quot;margin-top: 0px;&quot;&gt;RX Handling&lt;/h1&gt;&lt;p&gt;due to how lora/messageAPI was implemented (ie. only one message at a time), rx runtime needs to be run at the update rate of the micro. Ideally&amp;nbsp;&lt;/p&gt;" style="text;html=1;whiteSpace=wrap;overflow=hidden;rounded=0;align=left;" vertex="1" parent="WIyWlLk6GJQsqaUBKTNV-1">
          <mxGeometry x="90" y="30" width="180" height="120" as="geometry" />
        </mxCell>
        <mxCell id="f5HPm9VqEAg4-mi-M7pS-3" value="&lt;h1 style=&quot;margin-top: 0px;&quot;&gt;TX Handling&lt;/h1&gt;&lt;p&gt;Tx handling should be done at the fastest rate of tx messages (100ms)&lt;/p&gt;" style="text;html=1;whiteSpace=wrap;overflow=hidden;rounded=0;align=left;" vertex="1" parent="WIyWlLk6GJQsqaUBKTNV-1">
          <mxGeometry x="580" y="30" width="180" height="120" as="geometry" />
        </mxCell>
        <mxCell id="f5HPm9VqEAg4-mi-M7pS-9" style="edgeStyle=orthogonalEdgeStyle;rounded=0;orthogonalLoop=1;jettySize=auto;html=1;exitX=1;exitY=0.5;exitDx=0;exitDy=0;entryX=0.5;entryY=0;entryDx=0;entryDy=0;" edge="1" parent="WIyWlLk6GJQsqaUBKTNV-1" source="f5HPm9VqEAg4-mi-M7pS-7" target="f5HPm9VqEAg4-mi-M7pS-17">
          <mxGeometry relative="1" as="geometry">
            <mxPoint x="350" y="360" as="targetPoint" />
          </mxGeometry>
        </mxCell>
        <mxCell id="f5HPm9VqEAg4-mi-M7pS-19" style="edgeStyle=orthogonalEdgeStyle;rounded=0;orthogonalLoop=1;jettySize=auto;html=1;exitX=0.5;exitY=1;exitDx=0;exitDy=0;" edge="1" parent="WIyWlLk6GJQsqaUBKTNV-1" source="f5HPm9VqEAg4-mi-M7pS-7" target="f5HPm9VqEAg4-mi-M7pS-18">
          <mxGeometry relative="1" as="geometry" />
        </mxCell>
        <mxCell id="f5HPm9VqEAg4-mi-M7pS-7" value="Has MessageAPI gotten&lt;div&gt;a new message?&lt;/div&gt;" style="rhombus;whiteSpace=wrap;html=1;" vertex="1" parent="WIyWlLk6GJQsqaUBKTNV-1">
          <mxGeometry x="40" y="270" width="200" height="80" as="geometry" />
        </mxCell>
        <mxCell id="f5HPm9VqEAg4-mi-M7pS-10" value="Yes" style="text;html=1;align=center;verticalAlign=middle;whiteSpace=wrap;rounded=0;" vertex="1" parent="WIyWlLk6GJQsqaUBKTNV-1">
          <mxGeometry x="270" y="280" width="60" height="30" as="geometry" />
        </mxCell>
        <mxCell id="f5HPm9VqEAg4-mi-M7pS-14" value="&lt;b&gt;rx_runtime()&lt;/b&gt;" style="shape=process;whiteSpace=wrap;html=1;backgroundOutline=1;" vertex="1" parent="WIyWlLk6GJQsqaUBKTNV-1">
          <mxGeometry x="60" y="170" width="160" height="60" as="geometry" />
        </mxCell>
        <mxCell id="f5HPm9VqEAg4-mi-M7pS-15" value="&lt;h1 style=&quot;margin-top: 0px;&quot;&gt;&lt;span style=&quot;background-color: initial;&quot;&gt;Key&lt;/span&gt;&lt;/h1&gt;&lt;h1 style=&quot;margin-top: 0px; line-height: 50%;&quot;&gt;&lt;span style=&quot;font-size: 12px; font-weight: 400;&quot;&gt;&lt;font color=&quot;#33ff33&quot;&gt;Implemented&lt;br&gt;&lt;/font&gt;&lt;font color=&quot;#663300&quot;&gt;In progress&lt;br&gt;&lt;/font&gt;&lt;font color=&quot;#ff6666&quot;&gt;to be added&lt;/font&gt;&lt;/span&gt;&lt;/h1&gt;" style="text;html=1;whiteSpace=wrap;overflow=hidden;rounded=0;align=left;" vertex="1" parent="WIyWlLk6GJQsqaUBKTNV-1">
          <mxGeometry x="324" y="20" width="180" height="150" as="geometry" />
        </mxCell>
        <mxCell id="f5HPm9VqEAg4-mi-M7pS-17" value="&lt;b&gt;lora_unpack_engine()&lt;/b&gt;" style="shape=process;whiteSpace=wrap;html=1;backgroundOutline=1;" vertex="1" parent="WIyWlLk6GJQsqaUBKTNV-1">
          <mxGeometry x="270" y="360" width="160" height="60" as="geometry" />
        </mxCell>
        <mxCell id="f5HPm9VqEAg4-mi-M7pS-21" style="edgeStyle=orthogonalEdgeStyle;rounded=0;orthogonalLoop=1;jettySize=auto;html=1;exitX=1;exitY=0.5;exitDx=0;exitDy=0;" edge="1" parent="WIyWlLk6GJQsqaUBKTNV-1" source="f5HPm9VqEAg4-mi-M7pS-18" target="f5HPm9VqEAg4-mi-M7pS-20">
          <mxGeometry relative="1" as="geometry" />
        </mxCell>
        <mxCell id="f5HPm9VqEAg4-mi-M7pS-35" style="edgeStyle=orthogonalEdgeStyle;rounded=0;orthogonalLoop=1;jettySize=auto;html=1;exitX=0.5;exitY=1;exitDx=0;exitDy=0;entryX=0.5;entryY=0;entryDx=0;entryDy=0;" edge="1" parent="WIyWlLk6GJQsqaUBKTNV-1" source="f5HPm9VqEAg4-mi-M7pS-18" target="f5HPm9VqEAg4-mi-M7pS-31">
          <mxGeometry relative="1" as="geometry" />
        </mxCell>
        <mxCell id="f5HPm9VqEAg4-mi-M7pS-18" value="while p_rx_queue is not&lt;div&gt;empty&lt;/div&gt;" style="rhombus;whiteSpace=wrap;html=1;" vertex="1" parent="WIyWlLk6GJQsqaUBKTNV-1">
          <mxGeometry x="40" y="530" width="200" height="80" as="geometry" />
        </mxCell>
        <mxCell id="f5HPm9VqEAg4-mi-M7pS-28" style="edgeStyle=orthogonalEdgeStyle;rounded=0;orthogonalLoop=1;jettySize=auto;html=1;exitX=0.5;exitY=1;exitDx=0;exitDy=0;entryX=0.5;entryY=0;entryDx=0;entryDy=0;" edge="1" parent="WIyWlLk6GJQsqaUBKTNV-1" source="f5HPm9VqEAg4-mi-M7pS-20" target="f5HPm9VqEAg4-mi-M7pS-27">
          <mxGeometry relative="1" as="geometry" />
        </mxCell>
        <mxCell id="f5HPm9VqEAg4-mi-M7pS-20" value="&lt;b&gt;process_rx() of front&lt;/b&gt;&lt;div&gt;&lt;b&gt;of queue&lt;/b&gt;&lt;/div&gt;" style="shape=process;whiteSpace=wrap;html=1;backgroundOutline=1;" vertex="1" parent="WIyWlLk6GJQsqaUBKTNV-1">
          <mxGeometry x="274" y="620" width="160" height="60" as="geometry" />
        </mxCell>
        <mxCell id="f5HPm9VqEAg4-mi-M7pS-22" value="Not empty" style="text;html=1;align=center;verticalAlign=middle;whiteSpace=wrap;rounded=0;" vertex="1" parent="WIyWlLk6GJQsqaUBKTNV-1">
          <mxGeometry x="260" y="540" width="60" height="30" as="geometry" />
        </mxCell>
        <mxCell id="f5HPm9VqEAg4-mi-M7pS-26" style="edgeStyle=orthogonalEdgeStyle;rounded=0;orthogonalLoop=1;jettySize=auto;html=1;exitX=0.5;exitY=1;exitDx=0;exitDy=0;entryX=0.5;entryY=0;entryDx=0;entryDy=0;" edge="1" parent="WIyWlLk6GJQsqaUBKTNV-1" source="f5HPm9VqEAg4-mi-M7pS-24" target="f5HPm9VqEAg4-mi-M7pS-18">
          <mxGeometry relative="1" as="geometry">
            <Array as="points">
              <mxPoint x="354" y="890" />
              <mxPoint x="450" y="890" />
              <mxPoint x="450" y="510" />
              <mxPoint x="140" y="510" />
            </Array>
          </mxGeometry>
        </mxCell>
        <mxCell id="f5HPm9VqEAg4-mi-M7pS-24" value="pop front of queue" style="rounded=1;whiteSpace=wrap;html=1;" vertex="1" parent="WIyWlLk6GJQsqaUBKTNV-1">
          <mxGeometry x="294" y="800" width="120" height="60" as="geometry" />
        </mxCell>
        <mxCell id="f5HPm9VqEAg4-mi-M7pS-27" value="ack message and/or&lt;div&gt;confirm ack&lt;/div&gt;" style="rounded=1;whiteSpace=wrap;html=1;fontColor=#FF6666;" vertex="1" parent="WIyWlLk6GJQsqaUBKTNV-1">
          <mxGeometry x="290" y="710" width="120" height="60" as="geometry" />
        </mxCell>
        <mxCell id="f5HPm9VqEAg4-mi-M7pS-29" style="edgeStyle=orthogonalEdgeStyle;rounded=0;orthogonalLoop=1;jettySize=auto;html=1;exitX=0.5;exitY=1;exitDx=0;exitDy=0;entryX=0.45;entryY=0.017;entryDx=0;entryDy=0;entryPerimeter=0;" edge="1" parent="WIyWlLk6GJQsqaUBKTNV-1" source="f5HPm9VqEAg4-mi-M7pS-27" target="f5HPm9VqEAg4-mi-M7pS-24">
          <mxGeometry relative="1" as="geometry" />
        </mxCell>
        <mxCell id="f5HPm9VqEAg4-mi-M7pS-31" value="&lt;br&gt;Exit&lt;div&gt;&lt;br&gt;&lt;/div&gt;" style="text;html=1;align=center;verticalAlign=middle;whiteSpace=wrap;rounded=0;" vertex="1" parent="WIyWlLk6GJQsqaUBKTNV-1">
          <mxGeometry x="110" y="690" width="60" height="30" as="geometry" />
        </mxCell>
        <mxCell id="f5HPm9VqEAg4-mi-M7pS-38" style="edgeStyle=orthogonalEdgeStyle;rounded=0;orthogonalLoop=1;jettySize=auto;html=1;exitX=0.5;exitY=1;exitDx=0;exitDy=0;entryX=0.5;entryY=0;entryDx=0;entryDy=0;" edge="1" parent="WIyWlLk6GJQsqaUBKTNV-1" source="f5HPm9VqEAg4-mi-M7pS-36" target="f5HPm9VqEAg4-mi-M7pS-37">
          <mxGeometry relative="1" as="geometry" />
        </mxCell>
        <mxCell id="f5HPm9VqEAg4-mi-M7pS-36" value="&lt;b&gt;tx_runtime()&lt;/b&gt;" style="shape=process;whiteSpace=wrap;html=1;backgroundOutline=1;" vertex="1" parent="WIyWlLk6GJQsqaUBKTNV-1">
          <mxGeometry x="540" y="170" width="160" height="60" as="geometry" />
        </mxCell>
        <mxCell id="f5HPm9VqEAg4-mi-M7pS-44" style="edgeStyle=orthogonalEdgeStyle;rounded=0;orthogonalLoop=1;jettySize=auto;html=1;exitX=1;exitY=0.5;exitDx=0;exitDy=0;entryX=0.5;entryY=0;entryDx=0;entryDy=0;" edge="1" parent="WIyWlLk6GJQsqaUBKTNV-1" source="f5HPm9VqEAg4-mi-M7pS-37" target="f5HPm9VqEAg4-mi-M7pS-40">
          <mxGeometry relative="1" as="geometry" />
        </mxCell>
        <mxCell id="f5HPm9VqEAg4-mi-M7pS-47" style="edgeStyle=orthogonalEdgeStyle;rounded=0;orthogonalLoop=1;jettySize=auto;html=1;exitX=0.5;exitY=1;exitDx=0;exitDy=0;" edge="1" parent="WIyWlLk6GJQsqaUBKTNV-1" source="f5HPm9VqEAg4-mi-M7pS-37">
          <mxGeometry relative="1" as="geometry">
            <mxPoint x="620" y="500" as="targetPoint" />
          </mxGeometry>
        </mxCell>
        <mxCell id="f5HPm9VqEAg4-mi-M7pS-37" value="for-each item in mailbox" style="rounded=1;whiteSpace=wrap;html=1;" vertex="1" parent="WIyWlLk6GJQsqaUBKTNV-1">
          <mxGeometry x="560" y="250" width="120" height="60" as="geometry" />
        </mxCell>
        <mxCell id="f5HPm9VqEAg4-mi-M7pS-43" style="edgeStyle=orthogonalEdgeStyle;rounded=0;orthogonalLoop=1;jettySize=auto;html=1;exitX=1;exitY=0.5;exitDx=0;exitDy=0;entryX=0.5;entryY=0;entryDx=0;entryDy=0;" edge="1" parent="WIyWlLk6GJQsqaUBKTNV-1" source="f5HPm9VqEAg4-mi-M7pS-40" target="f5HPm9VqEAg4-mi-M7pS-42">
          <mxGeometry relative="1" as="geometry" />
        </mxCell>
        <mxCell id="f5HPm9VqEAg4-mi-M7pS-45" style="edgeStyle=orthogonalEdgeStyle;rounded=0;orthogonalLoop=1;jettySize=auto;html=1;exitX=0.5;exitY=1;exitDx=0;exitDy=0;entryX=0;entryY=0.5;entryDx=0;entryDy=0;" edge="1" parent="WIyWlLk6GJQsqaUBKTNV-1" source="f5HPm9VqEAg4-mi-M7pS-40" target="f5HPm9VqEAg4-mi-M7pS-37">
          <mxGeometry relative="1" as="geometry" />
        </mxCell>
        <mxCell id="f5HPm9VqEAg4-mi-M7pS-40" value="update rate == current clock" style="rhombus;whiteSpace=wrap;html=1;" vertex="1" parent="WIyWlLk6GJQsqaUBKTNV-1">
          <mxGeometry x="730" y="310" width="200" height="80" as="geometry" />
        </mxCell>
        <mxCell id="f5HPm9VqEAg4-mi-M7pS-42" value="&lt;b&gt;process_tx()&lt;/b&gt;" style="shape=process;whiteSpace=wrap;html=1;backgroundOutline=1;" vertex="1" parent="WIyWlLk6GJQsqaUBKTNV-1">
          <mxGeometry x="920" y="390" width="160" height="60" as="geometry" />
        </mxCell>
        <mxCell id="f5HPm9VqEAg4-mi-M7pS-46" value="Yes" style="text;html=1;align=center;verticalAlign=middle;whiteSpace=wrap;rounded=0;" vertex="1" parent="WIyWlLk6GJQsqaUBKTNV-1">
          <mxGeometry x="930" y="320" width="60" height="30" as="geometry" />
        </mxCell>
        <mxCell id="f5HPm9VqEAg4-mi-M7pS-52" style="edgeStyle=orthogonalEdgeStyle;rounded=0;orthogonalLoop=1;jettySize=auto;html=1;exitX=1;exitY=0.5;exitDx=0;exitDy=0;entryX=0.5;entryY=0;entryDx=0;entryDy=0;" edge="1" parent="WIyWlLk6GJQsqaUBKTNV-1" source="f5HPm9VqEAg4-mi-M7pS-48" target="f5HPm9VqEAg4-mi-M7pS-51">
          <mxGeometry relative="1" as="geometry" />
        </mxCell>
        <mxCell id="f5HPm9VqEAg4-mi-M7pS-54" style="edgeStyle=orthogonalEdgeStyle;rounded=0;orthogonalLoop=1;jettySize=auto;html=1;exitX=0.5;exitY=1;exitDx=0;exitDy=0;entryX=0.5;entryY=0;entryDx=0;entryDy=0;" edge="1" parent="WIyWlLk6GJQsqaUBKTNV-1" source="f5HPm9VqEAg4-mi-M7pS-48" target="f5HPm9VqEAg4-mi-M7pS-53">
          <mxGeometry relative="1" as="geometry" />
        </mxCell>
        <mxCell id="f5HPm9VqEAg4-mi-M7pS-48" value="if clock == 1s" style="rhombus;whiteSpace=wrap;html=1;" vertex="1" parent="WIyWlLk6GJQsqaUBKTNV-1">
          <mxGeometry x="520" y="500" width="200" height="80" as="geometry" />
        </mxCell>
        <mxCell id="f5HPm9VqEAg4-mi-M7pS-50" value="process_tx() will push items to the transmit_queue" style="text;html=1;align=center;verticalAlign=middle;whiteSpace=wrap;rounded=0;" vertex="1" parent="WIyWlLk6GJQsqaUBKTNV-1">
          <mxGeometry x="910" y="460" width="190" height="30" as="geometry" />
        </mxCell>
        <mxCell id="f5HPm9VqEAg4-mi-M7pS-51" value="&lt;b&gt;transmit_engine()&lt;/b&gt;" style="shape=process;whiteSpace=wrap;html=1;backgroundOutline=1;" vertex="1" parent="WIyWlLk6GJQsqaUBKTNV-1">
          <mxGeometry x="780" y="570" width="160" height="60" as="geometry" />
        </mxCell>
        <mxCell id="f5HPm9VqEAg4-mi-M7pS-53" value="&lt;br&gt;Exit&lt;div&gt;&lt;br&gt;&lt;/div&gt;" style="text;html=1;align=center;verticalAlign=middle;whiteSpace=wrap;rounded=0;" vertex="1" parent="WIyWlLk6GJQsqaUBKTNV-1">
          <mxGeometry x="590" y="640" width="60" height="30" as="geometry" />
        </mxCell>
        <mxCell id="f5HPm9VqEAg4-mi-M7pS-60" style="edgeStyle=orthogonalEdgeStyle;rounded=0;orthogonalLoop=1;jettySize=auto;html=1;exitX=0.5;exitY=1;exitDx=0;exitDy=0;entryX=0.5;entryY=0;entryDx=0;entryDy=0;" edge="1" parent="WIyWlLk6GJQsqaUBKTNV-1" source="f5HPm9VqEAg4-mi-M7pS-55" target="f5HPm9VqEAg4-mi-M7pS-59">
          <mxGeometry relative="1" as="geometry" />
        </mxCell>
        <mxCell id="f5HPm9VqEAg4-mi-M7pS-55" value="Loop through p_ack_queue and if an ack has not been handled assert" style="rounded=1;whiteSpace=wrap;html=1;" vertex="1" parent="WIyWlLk6GJQsqaUBKTNV-1">
          <mxGeometry x="780" y="660" width="170" height="80" as="geometry" />
        </mxCell>
        <mxCell id="f5HPm9VqEAg4-mi-M7pS-56" style="edgeStyle=orthogonalEdgeStyle;rounded=0;orthogonalLoop=1;jettySize=auto;html=1;exitX=0.5;exitY=1;exitDx=0;exitDy=0;entryX=0.453;entryY=0.038;entryDx=0;entryDy=0;entryPerimeter=0;" edge="1" parent="WIyWlLk6GJQsqaUBKTNV-1" source="f5HPm9VqEAg4-mi-M7pS-51" target="f5HPm9VqEAg4-mi-M7pS-55">
          <mxGeometry relative="1" as="geometry" />
        </mxCell>
        <mxCell id="f5HPm9VqEAg4-mi-M7pS-68" style="edgeStyle=orthogonalEdgeStyle;rounded=0;orthogonalLoop=1;jettySize=auto;html=1;exitX=0.5;exitY=1;exitDx=0;exitDy=0;entryX=0.5;entryY=0;entryDx=0;entryDy=0;" edge="1" parent="WIyWlLk6GJQsqaUBKTNV-1" source="f5HPm9VqEAg4-mi-M7pS-58" target="f5HPm9VqEAg4-mi-M7pS-65">
          <mxGeometry relative="1" as="geometry" />
        </mxCell>
        <mxCell id="f5HPm9VqEAg4-mi-M7pS-58" value="&lt;b&gt;lora_pack_engine()&lt;/b&gt;" style="shape=process;whiteSpace=wrap;html=1;backgroundOutline=1;" vertex="1" parent="WIyWlLk6GJQsqaUBKTNV-1">
          <mxGeometry x="965" y="830" width="160" height="60" as="geometry" />
        </mxCell>
        <mxCell id="f5HPm9VqEAg4-mi-M7pS-61" style="edgeStyle=orthogonalEdgeStyle;rounded=0;orthogonalLoop=1;jettySize=auto;html=1;exitX=1;exitY=0.5;exitDx=0;exitDy=0;entryX=0.5;entryY=0;entryDx=0;entryDy=0;" edge="1" parent="WIyWlLk6GJQsqaUBKTNV-1" source="f5HPm9VqEAg4-mi-M7pS-59" target="f5HPm9VqEAg4-mi-M7pS-58">
          <mxGeometry relative="1" as="geometry" />
        </mxCell>
        <mxCell id="f5HPm9VqEAg4-mi-M7pS-71" style="edgeStyle=orthogonalEdgeStyle;rounded=0;orthogonalLoop=1;jettySize=auto;html=1;exitX=0.5;exitY=1;exitDx=0;exitDy=0;" edge="1" parent="WIyWlLk6GJQsqaUBKTNV-1" source="f5HPm9VqEAg4-mi-M7pS-59" target="f5HPm9VqEAg4-mi-M7pS-53">
          <mxGeometry relative="1" as="geometry">
            <Array as="points">
              <mxPoint x="865" y="910" />
              <mxPoint x="620" y="910" />
            </Array>
          </mxGeometry>
        </mxCell>
        <mxCell id="f5HPm9VqEAg4-mi-M7pS-59" value="transmit_queue not empty?" style="rhombus;whiteSpace=wrap;html=1;" vertex="1" parent="WIyWlLk6GJQsqaUBKTNV-1">
          <mxGeometry x="765" y="760" width="200" height="80" as="geometry" />
        </mxCell>
        <mxCell id="f5HPm9VqEAg4-mi-M7pS-69" style="edgeStyle=orthogonalEdgeStyle;rounded=0;orthogonalLoop=1;jettySize=auto;html=1;exitX=0.5;exitY=1;exitDx=0;exitDy=0;entryX=0;entryY=0.5;entryDx=0;entryDy=0;" edge="1" parent="WIyWlLk6GJQsqaUBKTNV-1" source="f5HPm9VqEAg4-mi-M7pS-63" target="f5HPm9VqEAg4-mi-M7pS-59">
          <mxGeometry relative="1" as="geometry" />
        </mxCell>
        <mxCell id="f5HPm9VqEAg4-mi-M7pS-63" value="&lt;b&gt;messageAPI.send_message()&lt;/b&gt;" style="shape=process;whiteSpace=wrap;html=1;backgroundOutline=1;" vertex="1" parent="WIyWlLk6GJQsqaUBKTNV-1">
          <mxGeometry x="932.5" y="1000" width="235" height="60" as="geometry" />
        </mxCell>
        <mxCell id="f5HPm9VqEAg4-mi-M7pS-67" style="edgeStyle=orthogonalEdgeStyle;rounded=0;orthogonalLoop=1;jettySize=auto;html=1;exitX=0.5;exitY=1;exitDx=0;exitDy=0;entryX=0.5;entryY=0;entryDx=0;entryDy=0;" edge="1" parent="WIyWlLk6GJQsqaUBKTNV-1" source="f5HPm9VqEAg4-mi-M7pS-65" target="f5HPm9VqEAg4-mi-M7pS-63">
          <mxGeometry relative="1" as="geometry" />
        </mxCell>
        <mxCell id="f5HPm9VqEAg4-mi-M7pS-65" value="Build frame based upon index" style="rounded=1;whiteSpace=wrap;html=1;" vertex="1" parent="WIyWlLk6GJQsqaUBKTNV-1">
          <mxGeometry x="990" y="920" width="120" height="60" as="geometry" />
        </mxCell>
        <mxCell id="f5HPm9VqEAg4-mi-M7pS-66" value="Note, i DONT think ack should happen here bc it would clog it up, howerver, maybe this&amp;nbsp; function could be dual purpose for ack frames and normal data tx&#39;s" style="text;html=1;align=center;verticalAlign=middle;whiteSpace=wrap;rounded=0;fontColor=#E00000;" vertex="1" parent="WIyWlLk6GJQsqaUBKTNV-1">
          <mxGeometry x="1140" y="820" width="239" height="100" as="geometry" />
        </mxCell>
      </root>
    </mxGraphModel>
  </diagram>
</mxfile>
